<mxfile host="app.diagrams.net" agent="Mozilla/5.0 (Windows NT 10.0; Win64; x64) AppleWebKit/537.36 (KHTML, like Gecko) Chrome/129.0.0.0 Safari/537.36 Edg/129.0.0.0" version="27.0.4">
  <diagram id="C5RBs43oDa-KdzZeNtuy" name="Page-1">
    <mxGraphModel dx="1647" dy="972" grid="1" gridSize="10" guides="1" tooltips="1" connect="1" arrows="1" fold="1" page="1" pageScale="1" pageWidth="827" pageHeight="1169" math="0" shadow="0">
      <root>
        <mxCell id="WIyWlLk6GJQsqaUBKTNV-0" />
        <mxCell id="WIyWlLk6GJQsqaUBKTNV-1" parent="WIyWlLk6GJQsqaUBKTNV-0" />
        <mxCell id="TDDVPOBdDB0uYeIVKFg6-115" value="ContentViewer" style="swimlane;fontStyle=1;align=center;verticalAlign=top;childLayout=stackLayout;horizontal=1;startSize=34.666666666666664;horizontalStack=0;resizeParent=1;resizeParentMax=0;resizeLast=0;collapsible=0;marginBottom=0;fontSize=19;" vertex="1" parent="WIyWlLk6GJQsqaUBKTNV-1">
          <mxGeometry x="786" y="230" width="263" height="217.66666666666666" as="geometry" />
        </mxCell>
        <mxCell id="TDDVPOBdDB0uYeIVKFg6-116" value="-chapter: number" style="text;strokeColor=none;fillColor=none;align=left;verticalAlign=top;spacingLeft=4;spacingRight=4;overflow=hidden;rotatable=0;points=[[0,0.5],[1,0.5]];portConstraint=eastwest;fontSize=20;" vertex="1" parent="TDDVPOBdDB0uYeIVKFg6-115">
          <mxGeometry y="34.666666666666664" width="263" height="35" as="geometry" />
        </mxCell>
        <mxCell id="TDDVPOBdDB0uYeIVKFg6-117" value="-index: number" style="text;strokeColor=none;fillColor=none;align=left;verticalAlign=top;spacingLeft=4;spacingRight=4;overflow=hidden;rotatable=0;points=[[0,0.5],[1,0.5]];portConstraint=eastwest;fontSize=20;" vertex="1" parent="TDDVPOBdDB0uYeIVKFg6-115">
          <mxGeometry y="69.66666666666666" width="263" height="35" as="geometry" />
        </mxCell>
        <mxCell id="TDDVPOBdDB0uYeIVKFg6-118" value="-scenes: Scene[]" style="text;strokeColor=none;fillColor=none;align=left;verticalAlign=top;spacingLeft=4;spacingRight=4;overflow=hidden;rotatable=0;points=[[0,0.5],[1,0.5]];portConstraint=eastwest;fontSize=20;" vertex="1" parent="TDDVPOBdDB0uYeIVKFg6-115">
          <mxGeometry y="104.66666666666666" width="263" height="35" as="geometry" />
        </mxCell>
        <mxCell id="TDDVPOBdDB0uYeIVKFg6-119" value="-quote: Quote" style="text;strokeColor=none;fillColor=none;align=left;verticalAlign=top;spacingLeft=4;spacingRight=4;overflow=hidden;rotatable=0;points=[[0,0.5],[1,0.5]];portConstraint=eastwest;fontSize=20;" vertex="1" parent="TDDVPOBdDB0uYeIVKFg6-115">
          <mxGeometry y="139.66666666666666" width="263" height="35" as="geometry" />
        </mxCell>
        <mxCell id="TDDVPOBdDB0uYeIVKFg6-120" style="line;strokeWidth=1;fillColor=none;align=left;verticalAlign=middle;spacingTop=-1;spacingLeft=3;spacingRight=3;rotatable=0;labelPosition=right;points=[];portConstraint=eastwest;strokeColor=inherit;" vertex="1" parent="TDDVPOBdDB0uYeIVKFg6-115">
          <mxGeometry y="174.66666666666666" width="263" height="8" as="geometry" />
        </mxCell>
        <mxCell id="TDDVPOBdDB0uYeIVKFg6-121" value="+render() : : JSX.Element" style="text;strokeColor=none;fillColor=none;align=left;verticalAlign=top;spacingLeft=4;spacingRight=4;overflow=hidden;rotatable=0;points=[[0,0.5],[1,0.5]];portConstraint=eastwest;fontSize=20;" vertex="1" parent="TDDVPOBdDB0uYeIVKFg6-115">
          <mxGeometry y="182.66666666666666" width="263" height="35" as="geometry" />
        </mxCell>
        <mxCell id="TDDVPOBdDB0uYeIVKFg6-122" value="ContentBuilder" style="swimlane;fontStyle=1;align=center;verticalAlign=top;childLayout=stackLayout;horizontal=1;startSize=40;horizontalStack=0;resizeParent=1;resizeParentMax=0;resizeLast=0;collapsible=0;marginBottom=0;fontSize=19;" vertex="1" parent="WIyWlLk6GJQsqaUBKTNV-1">
          <mxGeometry x="342" y="254" width="355" height="168" as="geometry" />
        </mxCell>
        <mxCell id="TDDVPOBdDB0uYeIVKFg6-123" value="&lt;font style=&quot;font-size: 20px;&quot;&gt;-scenes: Scene[]&lt;/font&gt;" style="text;strokeColor=none;fillColor=none;align=left;verticalAlign=top;spacingLeft=4;spacingRight=4;overflow=hidden;rotatable=0;points=[[0,0.5],[1,0.5]];portConstraint=eastwest;fontSize=15;html=1;" vertex="1" parent="TDDVPOBdDB0uYeIVKFg6-122">
          <mxGeometry y="40" width="355" height="40" as="geometry" />
        </mxCell>
        <mxCell id="TDDVPOBdDB0uYeIVKFg6-124" style="line;strokeWidth=1;fillColor=none;align=left;verticalAlign=middle;spacingTop=-1;spacingLeft=3;spacingRight=3;rotatable=0;labelPosition=right;points=[];portConstraint=eastwest;strokeColor=inherit;" vertex="1" parent="TDDVPOBdDB0uYeIVKFg6-122">
          <mxGeometry y="80" width="355" height="8" as="geometry" />
        </mxCell>
        <mxCell id="TDDVPOBdDB0uYeIVKFg6-125" value="+paragraph(component, props) : : this" style="text;strokeColor=none;fillColor=none;align=left;verticalAlign=top;spacingLeft=4;spacingRight=4;overflow=hidden;rotatable=0;points=[[0,0.5],[1,0.5]];portConstraint=eastwest;fontSize=20;" vertex="1" parent="TDDVPOBdDB0uYeIVKFg6-122">
          <mxGeometry y="88" width="355" height="40" as="geometry" />
        </mxCell>
        <mxCell id="TDDVPOBdDB0uYeIVKFg6-126" value="+build() : : Scene[]" style="text;strokeColor=none;fillColor=none;align=left;verticalAlign=top;spacingLeft=4;spacingRight=4;overflow=hidden;rotatable=0;points=[[0,0.5],[1,0.5]];portConstraint=eastwest;fontSize=21;" vertex="1" parent="TDDVPOBdDB0uYeIVKFg6-122">
          <mxGeometry y="128" width="355" height="40" as="geometry" />
        </mxCell>
        <mxCell id="TDDVPOBdDB0uYeIVKFg6-127" value="Scene" style="swimlane;fontStyle=1;align=center;verticalAlign=top;childLayout=stackLayout;horizontal=1;startSize=38.857142857142854;horizontalStack=0;resizeParent=1;resizeParentMax=0;resizeLast=0;collapsible=0;marginBottom=0;fontSize=19;" vertex="1" parent="WIyWlLk6GJQsqaUBKTNV-1">
          <mxGeometry x="393" y="530" width="333" height="135.85714285714286" as="geometry" />
        </mxCell>
        <mxCell id="TDDVPOBdDB0uYeIVKFg6-128" value="-textContent: string" style="text;strokeColor=none;fillColor=none;align=left;verticalAlign=top;spacingLeft=4;spacingRight=4;overflow=hidden;rotatable=0;points=[[0,0.5],[1,0.5]];portConstraint=eastwest;fontSize=19;" vertex="1" parent="TDDVPOBdDB0uYeIVKFg6-127">
          <mxGeometry y="38.857142857142854" width="333" height="39" as="geometry" />
        </mxCell>
        <mxCell id="TDDVPOBdDB0uYeIVKFg6-129" value="-graphicContent: React.ComponentType" style="text;strokeColor=none;fillColor=none;align=left;verticalAlign=top;spacingLeft=4;spacingRight=4;overflow=hidden;rotatable=0;points=[[0,0.5],[1,0.5]];portConstraint=eastwest;fontSize=17;" vertex="1" parent="TDDVPOBdDB0uYeIVKFg6-127">
          <mxGeometry y="77.85714285714286" width="333" height="39" as="geometry" />
        </mxCell>
        <mxCell id="TDDVPOBdDB0uYeIVKFg6-130" style="line;strokeWidth=1;fillColor=none;align=left;verticalAlign=middle;spacingTop=-1;spacingLeft=3;spacingRight=3;rotatable=0;labelPosition=right;points=[];portConstraint=eastwest;strokeColor=inherit;" vertex="1" parent="TDDVPOBdDB0uYeIVKFg6-127">
          <mxGeometry y="116.85714285714286" width="333" height="19" as="geometry" />
        </mxCell>
        <mxCell id="TDDVPOBdDB0uYeIVKFg6-131" value="GraphicsViewer" style="swimlane;fontStyle=1;align=center;verticalAlign=top;childLayout=stackLayout;horizontal=1;startSize=40;horizontalStack=0;resizeParent=1;resizeParentMax=0;resizeLast=0;collapsible=0;marginBottom=0;fontSize=19;" vertex="1" parent="WIyWlLk6GJQsqaUBKTNV-1">
          <mxGeometry x="817" y="518" width="282" height="168" as="geometry" />
        </mxCell>
        <mxCell id="TDDVPOBdDB0uYeIVKFg6-132" value="-graphics: GraphicContent[]" style="text;strokeColor=none;fillColor=none;align=left;verticalAlign=top;spacingLeft=4;spacingRight=4;overflow=hidden;rotatable=0;points=[[0,0.5],[1,0.5]];portConstraint=eastwest;fontSize=19;" vertex="1" parent="TDDVPOBdDB0uYeIVKFg6-131">
          <mxGeometry y="40" width="282" height="40" as="geometry" />
        </mxCell>
        <mxCell id="TDDVPOBdDB0uYeIVKFg6-133" value="-currentIndex: number" style="text;strokeColor=none;fillColor=none;align=left;verticalAlign=top;spacingLeft=4;spacingRight=4;overflow=hidden;rotatable=0;points=[[0,0.5],[1,0.5]];portConstraint=eastwest;fontSize=19;" vertex="1" parent="TDDVPOBdDB0uYeIVKFg6-131">
          <mxGeometry y="80" width="282" height="40" as="geometry" />
        </mxCell>
        <mxCell id="TDDVPOBdDB0uYeIVKFg6-134" style="line;strokeWidth=1;fillColor=none;align=left;verticalAlign=middle;spacingTop=-1;spacingLeft=3;spacingRight=3;rotatable=0;labelPosition=right;points=[];portConstraint=eastwest;strokeColor=inherit;" vertex="1" parent="TDDVPOBdDB0uYeIVKFg6-131">
          <mxGeometry y="120" width="282" height="8" as="geometry" />
        </mxCell>
        <mxCell id="TDDVPOBdDB0uYeIVKFg6-135" value="+render() : : JSX.Element" style="text;strokeColor=none;fillColor=none;align=left;verticalAlign=top;spacingLeft=4;spacingRight=4;overflow=hidden;rotatable=0;points=[[0,0.5],[1,0.5]];portConstraint=eastwest;fontSize=19;" vertex="1" parent="TDDVPOBdDB0uYeIVKFg6-131">
          <mxGeometry y="128" width="282" height="40" as="geometry" />
        </mxCell>
        <mxCell id="TDDVPOBdDB0uYeIVKFg6-136" value="LogicGatesGraphic" style="swimlane;fontStyle=1;align=center;verticalAlign=top;childLayout=stackLayout;horizontal=1;startSize=47.2;horizontalStack=0;resizeParent=1;resizeParentMax=0;resizeLast=0;collapsible=0;marginBottom=0;fontSize=19;" vertex="1" parent="WIyWlLk6GJQsqaUBKTNV-1">
          <mxGeometry x="50" y="840" width="276" height="102.2" as="geometry" />
        </mxCell>
        <mxCell id="TDDVPOBdDB0uYeIVKFg6-137" style="line;strokeWidth=1;fillColor=none;align=left;verticalAlign=middle;spacingTop=-1;spacingLeft=3;spacingRight=3;rotatable=0;labelPosition=right;points=[];portConstraint=eastwest;strokeColor=inherit;" vertex="1" parent="TDDVPOBdDB0uYeIVKFg6-136">
          <mxGeometry y="47.2" width="276" height="8" as="geometry" />
        </mxCell>
        <mxCell id="TDDVPOBdDB0uYeIVKFg6-138" value="+render() : : JSX.Element" style="text;strokeColor=none;fillColor=none;align=left;verticalAlign=top;spacingLeft=4;spacingRight=4;overflow=hidden;rotatable=0;points=[[0,0.5],[1,0.5]];portConstraint=eastwest;fontSize=19;" vertex="1" parent="TDDVPOBdDB0uYeIVKFg6-136">
          <mxGeometry y="55.2" width="276" height="47" as="geometry" />
        </mxCell>
        <mxCell id="TDDVPOBdDB0uYeIVKFg6-139" value="NotGateGraphic" style="swimlane;fontStyle=1;align=center;verticalAlign=top;childLayout=stackLayout;horizontal=1;startSize=47.2;horizontalStack=0;resizeParent=1;resizeParentMax=0;resizeLast=0;collapsible=0;marginBottom=0;fontSize=19;" vertex="1" parent="WIyWlLk6GJQsqaUBKTNV-1">
          <mxGeometry x="386.5" y="840" width="266" height="102.2" as="geometry" />
        </mxCell>
        <mxCell id="TDDVPOBdDB0uYeIVKFg6-140" style="line;strokeWidth=1;fillColor=none;align=left;verticalAlign=middle;spacingTop=-1;spacingLeft=3;spacingRight=3;rotatable=0;labelPosition=right;points=[];portConstraint=eastwest;strokeColor=inherit;" vertex="1" parent="TDDVPOBdDB0uYeIVKFg6-139">
          <mxGeometry y="47.2" width="266" height="8" as="geometry" />
        </mxCell>
        <mxCell id="TDDVPOBdDB0uYeIVKFg6-141" value="+render() : : JSX.Element" style="text;strokeColor=none;fillColor=none;align=left;verticalAlign=top;spacingLeft=4;spacingRight=4;overflow=hidden;rotatable=0;points=[[0,0.5],[1,0.5]];portConstraint=eastwest;fontSize=19;" vertex="1" parent="TDDVPOBdDB0uYeIVKFg6-139">
          <mxGeometry y="55.2" width="266" height="47" as="geometry" />
        </mxCell>
        <mxCell id="TDDVPOBdDB0uYeIVKFg6-142" value="AndGateGraphic" style="swimlane;fontStyle=1;align=center;verticalAlign=top;childLayout=stackLayout;horizontal=1;startSize=47.2;horizontalStack=0;resizeParent=1;resizeParentMax=0;resizeLast=0;collapsible=0;marginBottom=0;fontSize=19;" vertex="1" parent="WIyWlLk6GJQsqaUBKTNV-1">
          <mxGeometry x="662" y="840" width="268" height="102.2" as="geometry" />
        </mxCell>
        <mxCell id="TDDVPOBdDB0uYeIVKFg6-143" style="line;strokeWidth=1;fillColor=none;align=left;verticalAlign=middle;spacingTop=-1;spacingLeft=3;spacingRight=3;rotatable=0;labelPosition=right;points=[];portConstraint=eastwest;strokeColor=inherit;" vertex="1" parent="TDDVPOBdDB0uYeIVKFg6-142">
          <mxGeometry y="47.2" width="268" height="8" as="geometry" />
        </mxCell>
        <mxCell id="TDDVPOBdDB0uYeIVKFg6-144" value="+render() : : JSX.Element" style="text;strokeColor=none;fillColor=none;align=left;verticalAlign=top;spacingLeft=4;spacingRight=4;overflow=hidden;rotatable=0;points=[[0,0.5],[1,0.5]];portConstraint=eastwest;fontSize=19;" vertex="1" parent="TDDVPOBdDB0uYeIVKFg6-142">
          <mxGeometry y="55.2" width="268" height="47" as="geometry" />
        </mxCell>
        <mxCell id="TDDVPOBdDB0uYeIVKFg6-145" value="BlochSphereGraphic" style="swimlane;fontStyle=1;align=center;verticalAlign=top;childLayout=stackLayout;horizontal=1;startSize=47.2;horizontalStack=0;resizeParent=1;resizeParentMax=0;resizeLast=0;collapsible=0;marginBottom=0;fontSize=19;" vertex="1" parent="WIyWlLk6GJQsqaUBKTNV-1">
          <mxGeometry x="980" y="840" width="282" height="102.2" as="geometry" />
        </mxCell>
        <mxCell id="TDDVPOBdDB0uYeIVKFg6-146" style="line;strokeWidth=1;fillColor=none;align=left;verticalAlign=middle;spacingTop=-1;spacingLeft=3;spacingRight=3;rotatable=0;labelPosition=right;points=[];portConstraint=eastwest;strokeColor=inherit;" vertex="1" parent="TDDVPOBdDB0uYeIVKFg6-145">
          <mxGeometry y="47.2" width="282" height="8" as="geometry" />
        </mxCell>
        <mxCell id="TDDVPOBdDB0uYeIVKFg6-147" value="+render() : : JSX.Element" style="text;strokeColor=none;fillColor=none;align=left;verticalAlign=top;spacingLeft=4;spacingRight=4;overflow=hidden;rotatable=0;points=[[0,0.5],[1,0.5]];portConstraint=eastwest;fontSize=19;" vertex="1" parent="TDDVPOBdDB0uYeIVKFg6-145">
          <mxGeometry y="55.2" width="282" height="47" as="geometry" />
        </mxCell>
        <mxCell id="TDDVPOBdDB0uYeIVKFg6-148" value="QuantumGraphic" style="swimlane;fontStyle=1;align=center;verticalAlign=top;childLayout=stackLayout;horizontal=1;startSize=31.11111111111111;horizontalStack=0;resizeParent=1;resizeParentMax=0;resizeLast=0;collapsible=0;marginBottom=0;fontSize=19;" vertex="1" parent="WIyWlLk6GJQsqaUBKTNV-1">
          <mxGeometry x="1290" y="759" width="270" height="287.1111111111111" as="geometry" />
        </mxCell>
        <mxCell id="TDDVPOBdDB0uYeIVKFg6-149" value="-inputPhi: number" style="text;strokeColor=none;fillColor=none;align=left;verticalAlign=top;spacingLeft=4;spacingRight=4;overflow=hidden;rotatable=0;points=[[0,0.5],[1,0.5]];portConstraint=eastwest;fontSize=19;" vertex="1" parent="TDDVPOBdDB0uYeIVKFg6-148">
          <mxGeometry y="31.11111111111111" width="270" height="31" as="geometry" />
        </mxCell>
        <mxCell id="TDDVPOBdDB0uYeIVKFg6-150" value="-inputTheta: number" style="text;strokeColor=none;fillColor=none;align=left;verticalAlign=top;spacingLeft=4;spacingRight=4;overflow=hidden;rotatable=0;points=[[0,0.5],[1,0.5]];portConstraint=eastwest;fontSize=19;" vertex="1" parent="TDDVPOBdDB0uYeIVKFg6-148">
          <mxGeometry y="62.111111111111114" width="270" height="31" as="geometry" />
        </mxCell>
        <mxCell id="TDDVPOBdDB0uYeIVKFg6-151" value="-outputPhi: number" style="text;strokeColor=none;fillColor=none;align=left;verticalAlign=top;spacingLeft=4;spacingRight=4;overflow=hidden;rotatable=0;points=[[0,0.5],[1,0.5]];portConstraint=eastwest;fontSize=19;" vertex="1" parent="TDDVPOBdDB0uYeIVKFg6-148">
          <mxGeometry y="93.11111111111111" width="270" height="31" as="geometry" />
        </mxCell>
        <mxCell id="TDDVPOBdDB0uYeIVKFg6-152" value="-outputTheta: number" style="text;strokeColor=none;fillColor=none;align=left;verticalAlign=top;spacingLeft=4;spacingRight=4;overflow=hidden;rotatable=0;points=[[0,0.5],[1,0.5]];portConstraint=eastwest;fontSize=19;" vertex="1" parent="TDDVPOBdDB0uYeIVKFg6-148">
          <mxGeometry y="124.11111111111111" width="270" height="31" as="geometry" />
        </mxCell>
        <mxCell id="TDDVPOBdDB0uYeIVKFg6-153" value="-controlPhi?: number" style="text;strokeColor=none;fillColor=none;align=left;verticalAlign=top;spacingLeft=4;spacingRight=4;overflow=hidden;rotatable=0;points=[[0,0.5],[1,0.5]];portConstraint=eastwest;fontSize=19;" vertex="1" parent="TDDVPOBdDB0uYeIVKFg6-148">
          <mxGeometry y="155.11111111111111" width="270" height="31" as="geometry" />
        </mxCell>
        <mxCell id="TDDVPOBdDB0uYeIVKFg6-154" value="-controlTheta?: number" style="text;strokeColor=none;fillColor=none;align=left;verticalAlign=top;spacingLeft=4;spacingRight=4;overflow=hidden;rotatable=0;points=[[0,0.5],[1,0.5]];portConstraint=eastwest;fontSize=19;" vertex="1" parent="TDDVPOBdDB0uYeIVKFg6-148">
          <mxGeometry y="186.11111111111111" width="270" height="31" as="geometry" />
        </mxCell>
        <mxCell id="TDDVPOBdDB0uYeIVKFg6-155" value="-name: string" style="text;strokeColor=none;fillColor=none;align=left;verticalAlign=top;spacingLeft=4;spacingRight=4;overflow=hidden;rotatable=0;points=[[0,0.5],[1,0.5]];portConstraint=eastwest;fontSize=19;" vertex="1" parent="TDDVPOBdDB0uYeIVKFg6-148">
          <mxGeometry y="217.11111111111111" width="270" height="31" as="geometry" />
        </mxCell>
        <mxCell id="TDDVPOBdDB0uYeIVKFg6-156" style="line;strokeWidth=1;fillColor=none;align=left;verticalAlign=middle;spacingTop=-1;spacingLeft=3;spacingRight=3;rotatable=0;labelPosition=right;points=[];portConstraint=eastwest;strokeColor=inherit;" vertex="1" parent="TDDVPOBdDB0uYeIVKFg6-148">
          <mxGeometry y="248.11111111111111" width="270" height="8" as="geometry" />
        </mxCell>
        <mxCell id="TDDVPOBdDB0uYeIVKFg6-157" value="+render() : : JSX.Element" style="text;strokeColor=none;fillColor=none;align=left;verticalAlign=top;spacingLeft=4;spacingRight=4;overflow=hidden;rotatable=0;points=[[0,0.5],[1,0.5]];portConstraint=eastwest;fontSize=19;" vertex="1" parent="TDDVPOBdDB0uYeIVKFg6-148">
          <mxGeometry y="256.1111111111111" width="270" height="31" as="geometry" />
        </mxCell>
        <mxCell id="TDDVPOBdDB0uYeIVKFg6-158" value="EntanglementGraphic" style="swimlane;fontStyle=1;align=center;verticalAlign=top;childLayout=stackLayout;horizontal=1;startSize=45.333333333333336;horizontalStack=0;resizeParent=1;resizeParentMax=0;resizeLast=0;collapsible=0;marginBottom=0;fontSize=19;" vertex="1" parent="WIyWlLk6GJQsqaUBKTNV-1">
          <mxGeometry x="1664" y="831" width="288" height="143.33333333333334" as="geometry" />
        </mxCell>
        <mxCell id="TDDVPOBdDB0uYeIVKFg6-159" value="-paragraphIndex: number" style="text;strokeColor=none;fillColor=none;align=left;verticalAlign=top;spacingLeft=4;spacingRight=4;overflow=hidden;rotatable=0;points=[[0,0.5],[1,0.5]];portConstraint=eastwest;fontSize=20;" vertex="1" parent="TDDVPOBdDB0uYeIVKFg6-158">
          <mxGeometry y="45.333333333333336" width="288" height="45" as="geometry" />
        </mxCell>
        <mxCell id="TDDVPOBdDB0uYeIVKFg6-160" style="line;strokeWidth=1;fillColor=none;align=left;verticalAlign=middle;spacingTop=-1;spacingLeft=3;spacingRight=3;rotatable=0;labelPosition=right;points=[];portConstraint=eastwest;strokeColor=inherit;" vertex="1" parent="TDDVPOBdDB0uYeIVKFg6-158">
          <mxGeometry y="90.33333333333334" width="288" height="8" as="geometry" />
        </mxCell>
        <mxCell id="TDDVPOBdDB0uYeIVKFg6-161" value="+render() : : JSX.Element" style="text;strokeColor=none;fillColor=none;align=left;verticalAlign=top;spacingLeft=4;spacingRight=4;overflow=hidden;rotatable=0;points=[[0,0.5],[1,0.5]];portConstraint=eastwest;fontSize=20;" vertex="1" parent="TDDVPOBdDB0uYeIVKFg6-158">
          <mxGeometry y="98.33333333333334" width="288" height="45" as="geometry" />
        </mxCell>
        <mxCell id="TDDVPOBdDB0uYeIVKFg6-162" value="SingleGate" style="swimlane;fontStyle=1;align=center;verticalAlign=top;childLayout=stackLayout;horizontal=1;startSize=40;horizontalStack=0;resizeParent=1;resizeParentMax=0;resizeLast=0;collapsible=0;marginBottom=0;fontSize=19;" vertex="1" parent="WIyWlLk6GJQsqaUBKTNV-1">
          <mxGeometry x="240" y="1140" width="329" height="168" as="geometry" />
        </mxCell>
        <mxCell id="TDDVPOBdDB0uYeIVKFg6-163" value="-position: [number, number, number]" style="text;strokeColor=none;fillColor=none;align=left;verticalAlign=top;spacingLeft=4;spacingRight=4;overflow=hidden;rotatable=0;points=[[0,0.5],[1,0.5]];portConstraint=eastwest;fontSize=19;" vertex="1" parent="TDDVPOBdDB0uYeIVKFg6-162">
          <mxGeometry y="40" width="329" height="40" as="geometry" />
        </mxCell>
        <mxCell id="TDDVPOBdDB0uYeIVKFg6-164" style="line;strokeWidth=1;fillColor=none;align=left;verticalAlign=middle;spacingTop=-1;spacingLeft=3;spacingRight=3;rotatable=0;labelPosition=right;points=[];portConstraint=eastwest;strokeColor=inherit;" vertex="1" parent="TDDVPOBdDB0uYeIVKFg6-162">
          <mxGeometry y="80" width="329" height="8" as="geometry" />
        </mxCell>
        <mxCell id="TDDVPOBdDB0uYeIVKFg6-165" value="-f(v: boolean) : : boolean" style="text;strokeColor=none;fillColor=none;align=left;verticalAlign=top;spacingLeft=4;spacingRight=4;overflow=hidden;rotatable=0;points=[[0,0.5],[1,0.5]];portConstraint=eastwest;fontSize=19;" vertex="1" parent="TDDVPOBdDB0uYeIVKFg6-162">
          <mxGeometry y="88" width="329" height="40" as="geometry" />
        </mxCell>
        <mxCell id="TDDVPOBdDB0uYeIVKFg6-166" value="+render() : : JSX.Element" style="text;strokeColor=none;fillColor=none;align=left;verticalAlign=top;spacingLeft=4;spacingRight=4;overflow=hidden;rotatable=0;points=[[0,0.5],[1,0.5]];portConstraint=eastwest;fontSize=19;" vertex="1" parent="TDDVPOBdDB0uYeIVKFg6-162">
          <mxGeometry y="128" width="329" height="40" as="geometry" />
        </mxCell>
        <mxCell id="TDDVPOBdDB0uYeIVKFg6-167" value="DoubleGate" style="swimlane;fontStyle=1;align=center;verticalAlign=top;childLayout=stackLayout;horizontal=1;startSize=40;horizontalStack=0;resizeParent=1;resizeParentMax=0;resizeLast=0;collapsible=0;marginBottom=0;fontSize=19;" vertex="1" parent="WIyWlLk6GJQsqaUBKTNV-1">
          <mxGeometry x="593" y="1131" width="352" height="168" as="geometry" />
        </mxCell>
        <mxCell id="TDDVPOBdDB0uYeIVKFg6-168" value="-position: [number, number, number]" style="text;strokeColor=none;fillColor=none;align=left;verticalAlign=top;spacingLeft=4;spacingRight=4;overflow=hidden;rotatable=0;points=[[0,0.5],[1,0.5]];portConstraint=eastwest;fontSize=19;" vertex="1" parent="TDDVPOBdDB0uYeIVKFg6-167">
          <mxGeometry y="40" width="352" height="40" as="geometry" />
        </mxCell>
        <mxCell id="TDDVPOBdDB0uYeIVKFg6-169" style="line;strokeWidth=1;fillColor=none;align=left;verticalAlign=middle;spacingTop=-1;spacingLeft=3;spacingRight=3;rotatable=0;labelPosition=right;points=[];portConstraint=eastwest;strokeColor=inherit;" vertex="1" parent="TDDVPOBdDB0uYeIVKFg6-167">
          <mxGeometry y="80" width="352" height="8" as="geometry" />
        </mxCell>
        <mxCell id="TDDVPOBdDB0uYeIVKFg6-170" value="-f(v1: boolean, v2: boolean) : : boolean" style="text;strokeColor=none;fillColor=none;align=left;verticalAlign=top;spacingLeft=4;spacingRight=4;overflow=hidden;rotatable=0;points=[[0,0.5],[1,0.5]];portConstraint=eastwest;fontSize=19;" vertex="1" parent="TDDVPOBdDB0uYeIVKFg6-167">
          <mxGeometry y="88" width="352" height="40" as="geometry" />
        </mxCell>
        <mxCell id="TDDVPOBdDB0uYeIVKFg6-171" value="+render() : : JSX.Element" style="text;strokeColor=none;fillColor=none;align=left;verticalAlign=top;spacingLeft=4;spacingRight=4;overflow=hidden;rotatable=0;points=[[0,0.5],[1,0.5]];portConstraint=eastwest;fontSize=19;" vertex="1" parent="TDDVPOBdDB0uYeIVKFg6-167">
          <mxGeometry y="128" width="352" height="40" as="geometry" />
        </mxCell>
        <mxCell id="TDDVPOBdDB0uYeIVKFg6-172" value="BlochSphere" style="swimlane;fontStyle=1;align=center;verticalAlign=top;childLayout=stackLayout;horizontal=1;startSize=36.8;horizontalStack=0;resizeParent=1;resizeParentMax=0;resizeLast=0;collapsible=0;marginBottom=0;fontSize=19;" vertex="1" parent="WIyWlLk6GJQsqaUBKTNV-1">
          <mxGeometry x="960" y="1118.6" width="254" height="192.8" as="geometry" />
        </mxCell>
        <mxCell id="TDDVPOBdDB0uYeIVKFg6-173" value="-radius: number" style="text;strokeColor=none;fillColor=none;align=left;verticalAlign=top;spacingLeft=4;spacingRight=4;overflow=hidden;rotatable=0;points=[[0,0.5],[1,0.5]];portConstraint=eastwest;fontSize=19;" vertex="1" parent="TDDVPOBdDB0uYeIVKFg6-172">
          <mxGeometry y="36.8" width="254" height="37" as="geometry" />
        </mxCell>
        <mxCell id="TDDVPOBdDB0uYeIVKFg6-174" value="-phi: number" style="text;strokeColor=none;fillColor=none;align=left;verticalAlign=top;spacingLeft=4;spacingRight=4;overflow=hidden;rotatable=0;points=[[0,0.5],[1,0.5]];portConstraint=eastwest;fontSize=19;" vertex="1" parent="TDDVPOBdDB0uYeIVKFg6-172">
          <mxGeometry y="73.8" width="254" height="37" as="geometry" />
        </mxCell>
        <mxCell id="TDDVPOBdDB0uYeIVKFg6-175" value="-theta: number" style="text;strokeColor=none;fillColor=none;align=left;verticalAlign=top;spacingLeft=4;spacingRight=4;overflow=hidden;rotatable=0;points=[[0,0.5],[1,0.5]];portConstraint=eastwest;fontSize=19;" vertex="1" parent="TDDVPOBdDB0uYeIVKFg6-172">
          <mxGeometry y="110.8" width="254" height="37" as="geometry" />
        </mxCell>
        <mxCell id="TDDVPOBdDB0uYeIVKFg6-176" style="line;strokeWidth=1;fillColor=none;align=left;verticalAlign=middle;spacingTop=-1;spacingLeft=3;spacingRight=3;rotatable=0;labelPosition=right;points=[];portConstraint=eastwest;strokeColor=inherit;" vertex="1" parent="TDDVPOBdDB0uYeIVKFg6-172">
          <mxGeometry y="147.8" width="254" height="8" as="geometry" />
        </mxCell>
        <mxCell id="TDDVPOBdDB0uYeIVKFg6-177" value="+render() : : JSX.Element" style="text;strokeColor=none;fillColor=none;align=left;verticalAlign=top;spacingLeft=4;spacingRight=4;overflow=hidden;rotatable=0;points=[[0,0.5],[1,0.5]];portConstraint=eastwest;fontSize=19;" vertex="1" parent="TDDVPOBdDB0uYeIVKFg6-172">
          <mxGeometry y="155.8" width="254" height="37" as="geometry" />
        </mxCell>
        <mxCell id="TDDVPOBdDB0uYeIVKFg6-178" value="Button" style="swimlane;fontStyle=1;align=center;verticalAlign=top;childLayout=stackLayout;horizontal=1;startSize=40;horizontalStack=0;resizeParent=1;resizeParentMax=0;resizeLast=0;collapsible=0;marginBottom=0;fontSize=19;" vertex="1" parent="WIyWlLk6GJQsqaUBKTNV-1">
          <mxGeometry x="1240" y="1143.4" width="315" height="168" as="geometry" />
        </mxCell>
        <mxCell id="TDDVPOBdDB0uYeIVKFg6-179" value="-position: [number, number, number]" style="text;strokeColor=none;fillColor=none;align=left;verticalAlign=top;spacingLeft=4;spacingRight=4;overflow=hidden;rotatable=0;points=[[0,0.5],[1,0.5]];portConstraint=eastwest;fontSize=19;" vertex="1" parent="TDDVPOBdDB0uYeIVKFg6-178">
          <mxGeometry y="40" width="315" height="40" as="geometry" />
        </mxCell>
        <mxCell id="TDDVPOBdDB0uYeIVKFg6-180" style="line;strokeWidth=1;fillColor=none;align=left;verticalAlign=middle;spacingTop=-1;spacingLeft=3;spacingRight=3;rotatable=0;labelPosition=right;points=[];portConstraint=eastwest;strokeColor=inherit;" vertex="1" parent="TDDVPOBdDB0uYeIVKFg6-178">
          <mxGeometry y="80" width="315" height="8" as="geometry" />
        </mxCell>
        <mxCell id="TDDVPOBdDB0uYeIVKFg6-181" value="-onClick() : : void" style="text;strokeColor=none;fillColor=none;align=left;verticalAlign=top;spacingLeft=4;spacingRight=4;overflow=hidden;rotatable=0;points=[[0,0.5],[1,0.5]];portConstraint=eastwest;fontSize=19;" vertex="1" parent="TDDVPOBdDB0uYeIVKFg6-178">
          <mxGeometry y="88" width="315" height="40" as="geometry" />
        </mxCell>
        <mxCell id="TDDVPOBdDB0uYeIVKFg6-182" value="+render() : : JSX.Element" style="text;strokeColor=none;fillColor=none;align=left;verticalAlign=top;spacingLeft=4;spacingRight=4;overflow=hidden;rotatable=0;points=[[0,0.5],[1,0.5]];portConstraint=eastwest;fontSize=19;" vertex="1" parent="TDDVPOBdDB0uYeIVKFg6-178">
          <mxGeometry y="128" width="315" height="40" as="geometry" />
        </mxCell>
        <mxCell id="TDDVPOBdDB0uYeIVKFg6-183" value="creates" style="curved=1;startArrow=none;endArrow=open;endSize=12;exitX=0.5;exitY=1;entryX=0.43;entryY=0;rounded=0;fontSize=20;" edge="1" parent="WIyWlLk6GJQsqaUBKTNV-1" source="TDDVPOBdDB0uYeIVKFg6-122" target="TDDVPOBdDB0uYeIVKFg6-127">
          <mxGeometry relative="1" as="geometry">
            <Array as="points">
              <mxPoint x="520" y="482" />
            </Array>
          </mxGeometry>
        </mxCell>
        <mxCell id="TDDVPOBdDB0uYeIVKFg6-184" value="displays" style="curved=1;startArrow=none;endArrow=open;endSize=12;exitX=0;exitY=0.99;entryX=0.82;entryY=0;rounded=0;fontSize=20;" edge="1" parent="WIyWlLk6GJQsqaUBKTNV-1" source="TDDVPOBdDB0uYeIVKFg6-115" target="TDDVPOBdDB0uYeIVKFg6-127">
          <mxGeometry relative="1" as="geometry">
            <Array as="points" />
          </mxGeometry>
        </mxCell>
        <mxCell id="TDDVPOBdDB0uYeIVKFg6-185" value="contains" style="curved=1;startArrow=none;endArrow=open;endSize=12;exitX=0.62;exitY=1;entryX=0.5;entryY=0;rounded=0;fontSize=19;" edge="1" parent="WIyWlLk6GJQsqaUBKTNV-1" source="TDDVPOBdDB0uYeIVKFg6-115" target="TDDVPOBdDB0uYeIVKFg6-131">
          <mxGeometry relative="1" as="geometry">
            <Array as="points" />
          </mxGeometry>
        </mxCell>
        <mxCell id="TDDVPOBdDB0uYeIVKFg6-186" value="renders" style="curved=1;startArrow=none;endArrow=open;endSize=12;exitX=0;exitY=0.63;entryX=0.5;entryY=0;rounded=0;fontSize=20;" edge="1" parent="WIyWlLk6GJQsqaUBKTNV-1" source="TDDVPOBdDB0uYeIVKFg6-131" target="TDDVPOBdDB0uYeIVKFg6-136">
          <mxGeometry relative="1" as="geometry">
            <Array as="points">
              <mxPoint x="158" y="723" />
            </Array>
          </mxGeometry>
        </mxCell>
        <mxCell id="TDDVPOBdDB0uYeIVKFg6-187" value="renders" style="curved=1;startArrow=none;endArrow=open;endSize=12;exitX=0;exitY=0.71;entryX=0.5;entryY=0;rounded=0;fontSize=19;" edge="1" parent="WIyWlLk6GJQsqaUBKTNV-1" source="TDDVPOBdDB0uYeIVKFg6-131" target="TDDVPOBdDB0uYeIVKFg6-139">
          <mxGeometry relative="1" as="geometry">
            <Array as="points">
              <mxPoint x="479" y="723" />
            </Array>
          </mxGeometry>
        </mxCell>
        <mxCell id="TDDVPOBdDB0uYeIVKFg6-188" value="renders" style="curved=1;startArrow=none;endArrow=open;endSize=12;exitX=0.1;exitY=1;entryX=0.5;entryY=0;rounded=0;fontSize=19;" edge="1" parent="WIyWlLk6GJQsqaUBKTNV-1" source="TDDVPOBdDB0uYeIVKFg6-131" target="TDDVPOBdDB0uYeIVKFg6-142">
          <mxGeometry x="0.0081" relative="1" as="geometry">
            <Array as="points">
              <mxPoint x="796" y="723" />
            </Array>
            <mxPoint as="offset" />
          </mxGeometry>
        </mxCell>
        <mxCell id="TDDVPOBdDB0uYeIVKFg6-189" value="renders" style="curved=1;startArrow=none;endArrow=open;endSize=12;exitX=0.91;exitY=1;entryX=0.5;entryY=0;rounded=0;fontSize=19;" edge="1" parent="WIyWlLk6GJQsqaUBKTNV-1" source="TDDVPOBdDB0uYeIVKFg6-131" target="TDDVPOBdDB0uYeIVKFg6-145">
          <mxGeometry relative="1" as="geometry">
            <Array as="points">
              <mxPoint x="1121" y="723" />
            </Array>
          </mxGeometry>
        </mxCell>
        <mxCell id="TDDVPOBdDB0uYeIVKFg6-190" value="renders" style="curved=1;startArrow=none;endArrow=open;endSize=12;exitX=1;exitY=0.7;entryX=0.5;entryY=0;rounded=0;fontSize=20;" edge="1" parent="WIyWlLk6GJQsqaUBKTNV-1" source="TDDVPOBdDB0uYeIVKFg6-131" target="TDDVPOBdDB0uYeIVKFg6-148">
          <mxGeometry relative="1" as="geometry">
            <Array as="points">
              <mxPoint x="1479" y="723" />
            </Array>
          </mxGeometry>
        </mxCell>
        <mxCell id="TDDVPOBdDB0uYeIVKFg6-191" value="renders" style="curved=1;startArrow=none;endArrow=open;endSize=12;exitX=1;exitY=0.62;entryX=0.5;entryY=0;rounded=0;fontSize=19;" edge="1" parent="WIyWlLk6GJQsqaUBKTNV-1" source="TDDVPOBdDB0uYeIVKFg6-131" target="TDDVPOBdDB0uYeIVKFg6-158">
          <mxGeometry x="0.0002" relative="1" as="geometry">
            <Array as="points">
              <mxPoint x="1807" y="723" />
            </Array>
            <mxPoint as="offset" />
          </mxGeometry>
        </mxCell>
        <mxCell id="TDDVPOBdDB0uYeIVKFg6-192" value="uses" style="curved=1;startArrow=none;endArrow=open;endSize=12;exitX=0.45;exitY=1;entryX=0.19;entryY=0;rounded=0;fontSize=19;" edge="1" parent="WIyWlLk6GJQsqaUBKTNV-1" source="TDDVPOBdDB0uYeIVKFg6-136" target="TDDVPOBdDB0uYeIVKFg6-162">
          <mxGeometry relative="1" as="geometry">
            <Array as="points">
              <mxPoint x="121" y="1083" />
            </Array>
          </mxGeometry>
        </mxCell>
        <mxCell id="TDDVPOBdDB0uYeIVKFg6-193" value="uses" style="curved=1;startArrow=none;endArrow=open;endSize=12;exitX=1;exitY=0.94;entryX=0.2;entryY=0;rounded=0;fontSize=20;" edge="1" parent="WIyWlLk6GJQsqaUBKTNV-1" source="TDDVPOBdDB0uYeIVKFg6-136" target="TDDVPOBdDB0uYeIVKFg6-167">
          <mxGeometry relative="1" as="geometry">
            <Array as="points">
              <mxPoint x="601" y="1083" />
            </Array>
          </mxGeometry>
        </mxCell>
        <mxCell id="TDDVPOBdDB0uYeIVKFg6-194" value="uses" style="curved=1;startArrow=none;endArrow=open;endSize=12;exitX=0.45;exitY=1;entryX=0.81;entryY=0;rounded=0;fontSize=19;" edge="1" parent="WIyWlLk6GJQsqaUBKTNV-1" source="TDDVPOBdDB0uYeIVKFg6-139" target="TDDVPOBdDB0uYeIVKFg6-162">
          <mxGeometry relative="1" as="geometry">
            <Array as="points">
              <mxPoint x="442" y="1083" />
            </Array>
          </mxGeometry>
        </mxCell>
        <mxCell id="TDDVPOBdDB0uYeIVKFg6-195" value="uses" style="curved=1;startArrow=none;endArrow=open;endSize=12;exitX=0.5;exitY=1;entryX=0.55;entryY=0;rounded=0;fontSize=19;" edge="1" parent="WIyWlLk6GJQsqaUBKTNV-1" source="TDDVPOBdDB0uYeIVKFg6-142" target="TDDVPOBdDB0uYeIVKFg6-167">
          <mxGeometry relative="1" as="geometry">
            <Array as="points">
              <mxPoint x="796" y="1083" />
            </Array>
          </mxGeometry>
        </mxCell>
        <mxCell id="TDDVPOBdDB0uYeIVKFg6-196" value="uses" style="curved=1;startArrow=none;endArrow=open;endSize=12;exitX=0.5;exitY=1;entryX=0.42;entryY=0;rounded=0;fontSize=19;" edge="1" parent="WIyWlLk6GJQsqaUBKTNV-1" source="TDDVPOBdDB0uYeIVKFg6-145" target="TDDVPOBdDB0uYeIVKFg6-172">
          <mxGeometry relative="1" as="geometry">
            <Array as="points">
              <mxPoint x="1121" y="1083" />
            </Array>
          </mxGeometry>
        </mxCell>
        <mxCell id="TDDVPOBdDB0uYeIVKFg6-197" value="uses" style="curved=1;startArrow=none;endArrow=open;endSize=12;exitX=0;exitY=1;entryX=0.96;entryY=0;rounded=0;fontSize=19;" edge="1" parent="WIyWlLk6GJQsqaUBKTNV-1" source="TDDVPOBdDB0uYeIVKFg6-148" target="TDDVPOBdDB0uYeIVKFg6-172">
          <mxGeometry relative="1" as="geometry">
            <Array as="points">
              <mxPoint x="1311" y="1083" />
            </Array>
          </mxGeometry>
        </mxCell>
        <mxCell id="TDDVPOBdDB0uYeIVKFg6-198" value="uses" style="curved=1;startArrow=none;endArrow=open;endSize=12;exitX=0.58;exitY=1;entryX=0.5;entryY=0;rounded=0;fontSize=19;" edge="1" parent="WIyWlLk6GJQsqaUBKTNV-1" source="TDDVPOBdDB0uYeIVKFg6-148" target="TDDVPOBdDB0uYeIVKFg6-178">
          <mxGeometry relative="1" as="geometry">
            <Array as="points">
              <mxPoint x="1506" y="1083" />
            </Array>
          </mxGeometry>
        </mxCell>
      </root>
    </mxGraphModel>
  </diagram>
</mxfile>
